<svg xmlns="http://www.w3.org/2000/svg" width="339" height="84" viewBox="0 0 339 84">
  <defs>
    <linearGradient id="logo_color-a" x1=".004%" y1="49.986%" y2="49.986%">
      <stop offset="0%" stop-color="#006BE1"/>
      <stop offset="63.26%" stop-color="#00B9B7"/>
      <stop offset="100%" stop-color="#00E99E"/>
    </linearGradient>
  </defs>
  <g fill="none" fill-rule="evenodd">
    <path fill="url(#logo_color-a)" d="M124.08,18.25 L123.78,17.52 L69.42,17.1 C68.56,17.09 67.79,16.57 67.46,15.78 L62.18,3 C61.6,1.59 62.64,0.04 64.17,0.05 L142.29,0.59 C143.15,0.6 143.92,1.12 144.25,1.91 L149.61,14.88 C149.94,15.67 149.76,16.59 149.15,17.2 L94.16,72.7 C93.09,73.78 91.25,73.42 90.67,72.01 L85.39,59.23 C85.06,58.44 85.24,57.52 85.85,56.91 L124.08,18.25 Z"/>
    <circle cx="11.93" cy="76.31" r="4.09" fill="#00DFB6" opacity=".1"/>
    <circle cx="8.11" cy="67.01" r="4.09" fill="#00DFB6" opacity=".1"/>
    <circle cx="13.21" cy="48.27" r="4.09" fill="#00DFB6" opacity=".2"/>
    <circle cx="4.24" cy="57.62" r="4.09" fill="#00DFB6" opacity=".1"/>
    <circle cx="24.53" cy="76.31" r="4.09" fill="#00DFB6" opacity=".2"/>
    <circle cx="20.76" cy="67.01" r="4.09" fill="#00DFB6" opacity=".2"/>
    <circle cx="16.89" cy="57.62" r="4.09" fill="#00DFB6" opacity=".2"/>
    <circle cx="25.94" cy="48.27" r="4.09" fill="#00C2C4" opacity=".4"/>
    <circle cx="37.13" cy="76.31" r="4.09" fill="#00D6BA" opacity=".4"/>
    <circle cx="33.49" cy="67.01" r="4.09" fill="#00D6BA" opacity=".4"/>
    <circle cx="22" cy="38.89" r="4.09" fill="#00C2C4" opacity=".4"/>
    <circle cx="49.73" cy="76.31" r="4.09" fill="#00D6BA" opacity=".4"/>
    <circle cx="46.22" cy="67.01" r="4.09" fill="#00D6BA" opacity=".4"/>
    <circle cx="34.73" cy="38.89" r="4.09" fill="#28A4D3" opacity=".6"/>
    <circle cx="30.7" cy="29.5" r="4.09" fill="#28A4D3" opacity=".6"/>
    <circle cx="62.33" cy="76.31" r="4.09" fill="#00BBC8" opacity=".6"/>
    <circle cx="58.84" cy="67.01" r="4.09" fill="#00BBC8" opacity=".6"/>
    <circle cx="43.31" cy="29.5" r="4.09" fill="#3299D8" opacity=".8"/>
    <circle cx="39.28" cy="19.98" r="4.09" fill="#3299D8" opacity=".8"/>
    <circle cx="74.94" cy="76.31" r="4.09" fill="#27A5D3" opacity=".8"/>
    <circle cx="71.11" cy="67.01" r="4.09" fill="#27A5D3" opacity=".8"/>
    <circle cx="51.56" cy="19.98" r="4.09" fill="#4380E3"/>
    <circle cx="47.66" cy="10.47" r="4.09" fill="#4380E3"/>
    <g fill="#000" transform="translate(161)">
      <g transform="translate(1)">
        <path fill-rule="nonzero" d="M52.72 5.94C56.71 9.12 58.7 13.59 58.7 19.36 58.7 24.1 57.56 28.25 55.27 31.81 52.98 35.37 49.72 38.12 45.49 40.05 41.26 41.99 36.34 42.96 30.74 42.96L19.43 42.96 16.52 57.75.52 57.75 11.83 1.16 35.76 1.16C43.07 1.17 48.72 2.76 52.72 5.94zM39.66 27.85C41.57 26.18 42.53 23.81 42.53 20.74 42.53 18.42 41.76 16.68 40.22 15.53 38.69 14.37 36.49 13.79 33.63 13.79L25.22 13.79 21.9 30.36 31.44 30.36C35.01 30.35 37.75 29.52 39.66 27.85zM68.96 1.17L116.24 1.17 113.74 13.54 82.21 13.54 80.35 22.67 95.06 22.67C100.88 22.67 105.37 23.98 108.52 26.59 111.67 29.2 113.25 32.96 113.25 37.86 113.25 41.9 112.14 45.42 109.94 48.41 107.73 51.4 104.56 53.7 100.44 55.32 96.32 56.93 91.45 57.75 85.85 57.75L57.64 57.75 68.96 1.17zM87.15 46.28C90.11 46.28 92.47 45.65 94.22 44.38 95.97 43.12 96.85 41.38 96.85 39.17 96.85 37.45 96.25 36.17 95.07 35.33 93.89 34.5 92.05 34.08 89.58 34.08L78.1 34.08 75.67 46.28 87.15 46.28z"/>
        <path d="M131.28,55.77 C126.96,53.7 123.65,50.78 121.33,47 C119.01,43.23 117.86,38.89 117.86,33.99 C117.86,27.52 119.36,21.7 122.35,16.53 C125.34,11.36 129.53,7.32 134.92,4.41 C140.31,1.5 146.45,0.04 153.35,0.04 C158.57,0.04 163.21,0.97 167.25,2.83 C171.29,4.69 174.31,7.32 176.3,10.71 L164.74,19.93 C161.99,15.51 157.84,13.3 152.29,13.3 C148.68,13.3 145.5,14.15 142.75,15.85 C140,17.55 137.86,19.89 136.33,22.88 C134.79,25.87 134.02,29.23 134.02,32.94 C134.02,36.77 135.26,39.84 137.74,42.15 C140.22,44.47 143.59,45.63 147.84,45.63 C153.23,45.63 157.83,43.45 161.66,39.08 L171.12,48.38 C168.05,52.1 164.46,54.78 160.37,56.42 C156.27,58.06 151.59,58.88 146.31,58.88 C140.6,58.89 135.6,57.85 131.28,55.77 Z"/>
      </g>
      <g opacity=".4" transform="translate(0 69)">
        <path d="M149.54,4.89 C149.12,4.87 148.77,4.84 148.44,4.83 C148.36,4.13 148.62,3.9 149.31,3.93 C150.87,3.98 150.87,3.95 151.25,5.49 C151.57,6.79 151.9,8.08 152.27,9.51 C152.81,8.63 153.27,7.86 153.73,7.1 C154.28,6.19 154.83,5.27 155.39,4.36 C155.49,4.2 155.67,3.98 155.82,3.97 C156.55,3.93 157.28,3.95 158.06,3.95 C157.99,4.29 157.94,4.55 157.88,4.84 C157.49,4.86 157.12,4.87 156.71,4.89 C156.41,6.62 156.11,8.33 155.8,10.08 C156.2,10.1 156.53,10.12 156.93,10.14 C156.89,10.45 156.85,10.72 156.81,11 C155.74,11 154.71,11 153.66,11 C153.71,10.7 153.76,10.44 153.82,10.1 C154.81,10.37 154.8,9.66 154.9,9.04 C155.03,8.24 155.17,7.44 155.19,6.58 C154.92,7.03 154.64,7.49 154.37,7.94 C153.9,8.73 153.44,9.53 152.97,10.32 C152.53,11.08 152.53,11.08 151.53,10.97 C151.18,9.49 150.82,7.99 150.46,6.49 C150.43,6.49 150.39,6.48 150.36,6.48 C150.15,7.65 149.94,8.83 149.72,10.04 C150.03,10.08 150.29,10.11 150.59,10.14 C150.54,10.43 150.5,10.69 150.45,10.98 C149.41,10.98 148.39,10.98 147.37,10.98 C147.35,10.12 147.36,10.14 148.15,10.08 C148.33,10.07 148.64,9.92 148.66,9.8 C148.98,8.18 149.25,6.56 149.54,4.89 Z"/>
        <path fill-rule="nonzero" d="M2.93,1.96 C2.51,1.94 2.2,1.92 1.83,1.9 C1.88,1.56 1.92,1.26 1.96,0.96 C4.05,0.96 6.08,0.88 8.1,0.99 C9.42,1.06 10.17,2.06 10.18,3.39 C10.18,5.62 8.87,7.03 6.65,7.12 C5.5,7.17 4.35,7.13 3.18,7.13 C3.01,8.12 2.85,9.03 2.68,9.99 C3.06,9.99 3.39,9.99 3.79,9.99 C3.74,10.35 3.71,10.65 3.66,10.98 C2.5,10.98 1.38,10.98 0.2,10.98 C0.26,10.65 0.31,10.35 0.37,10.01 C0.75,10.01 1.1,10.01 1.51,10.01 C1.99,7.33 2.46,4.68 2.93,1.96 Z M3.35,6.14 C4.46,6.14 5.49,6.16 6.51,6.13 C8.01,6.09 8.91,5.19 9.02,3.7 C9.09,2.73 8.57,2.03 7.6,1.98 C6.45,1.92 5.3,1.97 4.09,1.97 C3.85,3.32 3.61,4.68 3.35,6.14 Z"/>
        <path d="M63.81 10.99C63.87 10.69 63.92 10.43 63.97 10.19 64.04 10.16 64.08 10.13 64.12 10.12 65.18 10.06 65.17 10.06 65.35 8.99 65.52 7.97 65.7 6.95 65.76 5.86 64.52 7.21 63.29 8.57 62.17 9.8 62.21 10.28 62.25 10.62 62.28 11 61.07 11 59.97 11 58.86 11 58.78 10.16 58.81 10.15 59.58 10.09 59.78 10.08 60.1 9.92 60.13 9.77 60.44 8.17 60.71 6.56 61 4.87 60.6 4.87 60.25 4.87 59.91 4.87 59.93 3.93 59.93 3.93 60.8 3.93 61.66 3.93 62.51 3.93 63.42 3.93 63.37 4.27 63.32 4.53 63.28 4.82 62.88 4.84 62.51 4.86 62.1 4.88 61.85 6.3 61.6 7.69 61.32 9.28 62.71 7.76 63.97 6.37 65.08 5.16 65.05 4.72 64.96 4.44 65.04 4.21 65.08 4.07 65.38 3.95 65.56 3.94 66.52 3.91 67.48 3.93 68.5 3.93 68.44 4.26 68.4 4.52 68.35 4.82 67.97 4.84 67.6 4.86 67.17 4.88 66.87 6.59 66.57 8.3 66.25 10.06 66.64 10.08 66.99 10.1 67.39 10.13 67.34 10.44 67.3 10.7 67.26 10.98 66.1 10.99 64.98 10.99 63.81 10.99zM120.54 5.86C119.3 7.22 118.07 8.57 116.95 9.79 116.99 10.27 117.02 10.61 117.06 10.99 115.85 10.99 114.75 10.99 113.64 10.99 113.57 10.15 113.59 10.14 114.37 10.08 114.57 10.07 114.89 9.9 114.92 9.76 115.23 8.16 115.5 6.55 115.79 4.86 115.39 4.86 115.04 4.86 114.7 4.86 114.73 3.93 114.73 3.93 115.6 3.93 116.46 3.93 117.31 3.93 118.22 3.93 118.16 4.27 118.12 4.53 118.07 4.82 117.67 4.84 117.3 4.86 116.89 4.88 116.64 6.3 116.39 7.69 116.11 9.28 117.5 7.76 118.76 6.37 120.03 4.99 119.97 4.99 119.91 4.98 119.85 4.98 119.83 4.72 119.75 4.45 119.82 4.22 119.86 4.08 120.16 3.96 120.34 3.95 121.3 3.92 122.26 3.94 123.28 3.94 123.22 4.27 123.18 4.53 123.13 4.83 122.75 4.85 122.37 4.87 121.95 4.89 121.65 6.61 121.35 8.31 121.04 10.07 121.44 10.1 121.78 10.12 122.18 10.14 122.13 10.45 122.09 10.71 122.05 10.99 120.91 10.99 119.81 10.99 118.63 10.99 118.68 10.71 118.72 10.43 118.76 10.19 118.84 10.15 118.88 10.12 118.92 10.12 119.97 10.06 119.97 10.06 120.14 8.99 120.31 7.97 120.49 6.95 120.67 5.93 120.62 5.9 120.58 5.88 120.54 5.86z"/>
        <path fill-rule="nonzero" d="M58.32,0.4 C58.26,0.73 58.21,1 58.14,1.37 C55.22,0.9 53.36,2.12 52.6,4.99 C53.36,4.2 54.24,3.72 55.38,3.81 C56.96,3.94 57.97,4.82 58.12,6.4 C58.35,8.94 56.61,11.48 53.4,11.13 C52.12,10.99 51.13,10.11 51.04,8.81 C50.86,6.29 51.36,3.91 53.07,1.95 C54.43,0.37 56.24,0.08 58.32,0.4 Z M54.99,4.72 C53.18,4.72 51.68,6.67 52.04,8.56 C52.27,9.76 53.17,10.39 54.38,10.2 C56.1,9.93 57.35,8.02 56.96,6.28 C56.73,5.25 56.06,4.72 54.99,4.72 Z"/>
        <path d="M23.64 10.99C22.48 10.99 21.38 10.99 20.27 10.99 20.18 10.35 20.36 10.01 21.07 10.08 21.24 10.1 21.56 9.88 21.59 9.73 21.89 8.21 22.14 6.68 22.4 5.15 22.41 5.07 22.4 4.99 22.4 4.88 22.02 4.86 21.67 4.84 21.31 4.81 21.35 4.53 21.39 4.28 21.43 3.98 22.56 3.98 23.68 3.98 24.84 3.98 24.81 4.25 24.78 4.51 24.74 4.82 24.35 4.82 23.98 4.82 23.56 4.82 23.44 5.5 23.32 6.13 23.2 6.81 24.61 6.81 25.98 6.81 27.4 6.81 27.51 6.17 27.62 5.54 27.74 4.87 27.32 4.84 26.97 4.82 26.64 4.8 26.56 4.1 26.83 3.85 27.52 3.9 28.37 3.96 29.23 3.91 30.14 3.91 30.1 4.23 30.07 4.49 30.04 4.8 29.65 4.8 29.28 4.8 28.85 4.8 28.54 6.55 28.24 8.25 27.92 10.03 28.31 10.05 28.65 10.07 29.07 10.09 29.02 10.39 28.97 10.66 28.92 10.96 27.79 10.96 26.68 10.96 25.58 10.96 25.53 10.1 25.54 10.07 26.33 10.07 26.69 10.07 26.87 9.97 26.91 9.6 26.98 9.02 27.09 8.45 27.2 7.81 25.8 7.81 24.45 7.81 23.02 7.81 22.89 8.51 22.76 9.24 22.61 10.04 23.01 10.06 23.36 10.08 23.77 10.09 23.74 10.43 23.7 10.69 23.64 10.99zM82.76 7.82C81.31 7.82 79.97 7.82 78.58 7.82 78.45 8.57 78.32 9.3 78.18 10.07 78.59 10.1 78.94 10.12 79.34 10.15 79.28 10.46 79.23 10.72 79.18 11.01 78.06 11.01 76.95 11.01 75.85 11.01 75.79 10.16 75.81 10.16 76.59 10.1 76.79 10.09 77.11 9.92 77.13 9.78 77.44 8.18 77.71 6.57 78 4.89 77.59 4.89 77.25 4.89 76.9 4.89 76.94 3.96 76.94 3.96 77.81 3.96 78.66 3.96 79.52 3.96 80.41 3.96 80.37 4.28 80.33 4.53 80.29 4.85 79.9 4.87 79.52 4.89 79.1 4.9 78.98 5.56 78.87 6.19 78.75 6.86 80.16 6.86 81.52 6.86 82.94 6.86 83.05 6.23 83.17 5.6 83.29 4.89 82.89 4.89 82.54 4.89 82.2 4.89 82.23 3.96 82.23 3.96 83.1 3.96 83.96 3.96 84.81 3.96 85.72 3.96 85.67 4.3 85.62 4.56 85.58 4.85 85.18 4.87 84.81 4.88 84.4 4.9 84.1 6.62 83.79 8.33 83.48 10.09 83.88 10.11 84.23 10.13 84.64 10.15 84.59 10.46 84.54 10.72 84.49 11.01 83.36 11.01 82.24 11.01 81.12 11.01 81.04 10.37 81.22 10.02 81.93 10.1 82.09 10.12 82.39 9.94 82.43 9.8 82.57 9.16 82.65 8.52 82.76 7.82zM14.71 9.7C15.68 8.01 16.57 6.48 17.49 4.88 17.1 4.86 16.8 4.84 16.5 4.82 16.49 3.93 16.49 3.93 17.3 3.93 18.14 3.93 18.98 3.94 19.82 3.94 19.86 3.94 19.9 3.97 20 4 19.96 4.25 19.91 4.5 19.87 4.75 19.82 4.78 19.78 4.83 19.75 4.82 18.9 4.66 18.51 5.15 18.13 5.82 16.73 8.26 15.28 10.66 13.83 13.07 12.94 14.56 12.25 14.89 10.43 14.71 10.47 14.43 10.52 14.16 10.56 13.91 10.63 13.87 10.67 13.83 10.7 13.83 11.96 14 12.62 13.32 13.23 12.31 13.78 11.4 13.94 10.59 13.63 9.56 13.16 8.02 12.85 6.43 12.47 4.84 12.1 4.84 11.77 4.84 11.44 4.84 11.43 3.92 11.43 3.92 12.3 3.92 13.16 3.92 14.01 3.92 14.92 3.92 14.88 4.25 14.84 4.51 14.8 4.8 14.42 4.82 14.07 4.84 13.65 4.87 13.99 6.47 14.34 8 14.71 9.7z"/>
        <path fill-rule="nonzero" d="M146.52 7.96C144.65 7.96 142.81 7.96 140.98 7.96 140.71 9.39 141.58 10.38 142.99 10.21 143.76 10.11 144.52 9.83 145.33 9.61 145.44 9.79 145.59 10.03 145.76 10.33 144.38 11.1 142.98 11.4 141.49 10.97 140.69 10.74 140.18 10.16 139.92 9.37 139.35 7.67 140.24 5.27 141.78 4.34 142.97 3.62 144.64 3.61 145.6 4.32 146.55 5.02 146.91 6.42 146.52 7.96zM145.52 6.97C145.68 5.74 145.1 4.88 144.04 4.74 142.69 4.56 141.38 5.56 141.15 6.97 142.62 6.97 144.07 6.97 145.52 6.97zM91.93 9.61C92.04 9.79 92.19 10.04 92.36 10.33 91 11.1 89.62 11.39 88.15 10.99 87.33 10.77 86.79 10.18 86.52 9.37 85.95 7.67 86.84 5.27 88.38 4.34 89.57 3.62 91.24 3.61 92.2 4.33 93.15 5.03 93.51 6.43 93.12 7.95 91.28 7.95 89.43 7.95 87.58 7.95 87.32 9.41 88.18 10.39 89.59 10.21 90.37 10.11 91.12 9.82 91.93 9.61zM92.15 6.98C92.23 5.59 91.61 4.8 90.47 4.73 89.14 4.65 87.85 5.73 87.79 6.98 89.23 6.98 90.67 6.98 92.15 6.98zM37.66 7.94C35.74 7.94 33.9 7.94 32.07 7.94 31.69 9.28 32.6 10.37 34.01 10.21 34.79 10.12 35.54 9.84 36.4 9.62 36.49 9.76 36.64 10 36.78 10.24 35.71 11.22 33.19 11.47 32.03 10.72 31.18 10.17 30.85 9.34 30.83 8.36 30.79 5.86 32.37 3.95 34.59 3.81 36.42 3.7 37.56 4.64 37.73 6.47 37.76 6.94 37.68 7.42 37.66 7.94zM36.57 6.97C36.73 5.74 36.15 4.88 35.09 4.74 33.74 4.56 32.43 5.56 32.2 6.97 33.67 6.97 35.12 6.97 36.57 6.97zM160.49 4.88C160.06 4.86 159.73 4.85 159.4 4.83 159.45 3.94 159.45 3.94 160.26 3.94 161.08 3.94 161.9 3.94 162.71 3.95 162.77 3.95 162.83 3.99 162.9 4.02 162.86 4.27 162.83 4.52 162.79 4.82 162.42 4.82 162.05 4.82 161.63 4.82 161.53 5.35 161.43 5.84 161.33 6.38 161.55 6.4 161.73 6.42 161.92 6.42 162.36 6.43 162.8 6.41 163.24 6.43 164.68 6.49 165.31 6.97 165.45 8.08 165.61 9.39 164.86 10.57 163.63 10.87 163.17 10.98 162.68 11.01 162.2 11.02 160.96 11.04 159.72 11.02 158.49 11.02 158.45 11.02 158.41 11 158.37 10.99 158.3 10.16 158.33 10.15 159.1 10.1 159.3 10.09 159.62 9.92 159.65 9.78 159.94 8.16 160.2 6.55 160.49 4.88zM160.69 10.02C161.56 10.02 162.37 10.09 163.17 10 163.96 9.91 164.42 9.14 164.35 8.27 164.3 7.64 163.92 7.38 163.02 7.37 162.42 7.36 161.81 7.37 161.16 7.37 161 8.28 160.84 9.15 160.69 10.02z"/>
        <path d="M68.88 10.23C69.25 9.75 69.57 9.52 70.19 9.89 70.89 10.31 71.72 10.35 72.51 10.11 72.84 10.01 73.17 9.82 73.4 9.57 74.02 8.9 73.77 8.11 72.89 7.91 72.36 7.79 71.82 7.77 71.24 7.69 71.3 7.41 71.35 7.15 71.41 6.85 71.76 6.82 72.09 6.81 72.42 6.76 72.73 6.71 73.04 6.66 73.33 6.54 73.8 6.35 74.09 5.99 74.02 5.46 73.96 4.95 73.52 4.76 73.1 4.76 72.48 4.75 71.82 4.76 71.25 4.95 70.97 5.04 70.84 5.56 70.6 5.95 70.4 5.95 70.09 5.95 69.7 5.95 69.78 5.46 69.82 4.99 69.94 4.54 69.98 4.4 70.19 4.24 70.34 4.21 71.28 4.06 72.23 3.85 73.18 3.83 74.24 3.81 74.96 4.41 75.12 5.2 75.28 5.98 74.85 6.65 73.88 7.16 73.83 7.19 73.78 7.23 73.72 7.27 75.07 8.1 75.16 9.48 73.94 10.46 72.68 11.48 70.11 11.37 68.88 10.23zM135.17 4.87C134.56 4.87 134.06 4.87 133.5 4.87 133.41 5.22 133.33 5.58 133.24 5.94 132.89 5.94 132.57 5.94 132.19 5.94 132.29 5.34 132.37 4.79 132.5 4.24 132.53 4.11 132.74 3.94 132.87 3.94 134.92 3.93 136.98 3.94 139.03 3.94 139.07 3.94 139.1 3.98 139.19 4.03 139.08 4.64 138.97 5.27 138.86 5.94 138.5 5.94 138.18 5.94 137.8 5.94 137.85 5.59 137.89 5.25 137.94 4.88 137.37 4.88 136.85 4.88 136.27 4.88 135.97 6.57 135.67 8.27 135.35 10.06 135.74 10.08 136.09 10.1 136.5 10.13 136.45 10.43 136.4 10.7 136.35 11 135.21 11 134.1 11 133 11 132.97 10.22 132.97 10.22 134.25 10.04 134.55 8.35 134.85 6.64 135.17 4.87zM40.28 5.95C39.93 5.95 39.61 5.95 39.23 5.95 39.33 5.35 39.41 4.8 39.54 4.25 39.57 4.12 39.78 3.95 39.91 3.95 41.96 3.94 44.02 3.95 46.07 3.95 46.11 3.95 46.14 3.99 46.23 4.04 46.12 4.65 46.01 5.28 45.9 5.95 45.54 5.95 45.22 5.95 44.84 5.95 44.89 5.6 44.93 5.26 44.98 4.89 44.41 4.89 43.9 4.89 43.32 4.89 43.16 5.74 43 6.6 42.85 7.46 42.7 8.3 42.56 9.15 42.4 10.07 42.79 10.09 43.13 10.11 43.55 10.14 43.5 10.44 43.45 10.71 43.4 11.01 42.26 11.01 41.16 11.01 40.05 11.01 40.02 10.23 40.02 10.23 41.27 10.05 41.31 9.9 41.37 9.74 41.4 9.58 41.67 8.04 41.94 6.49 42.21 4.9 41.64 4.9 41.13 4.9 40.55 4.9 40.46 5.22 40.37 5.58 40.28 5.95zM100.96 5.95C100.58 5.95 100.26 5.95 99.9 5.95 99.93 5.76 99.93 5.59 99.97 5.43 100.06 5.09 99.92 4.93 99.59 4.85 98.44 4.57 97.36 4.66 96.48 5.51 95.57 6.39 95.25 7.51 95.49 8.73 95.69 9.79 96.66 10.39 97.85 10.19 98.48 10.08 99.08 9.83 99.76 9.62 99.88 9.8 100.03 10.04 100.21 10.32 98.85 11.19 97.45 11.43 95.98 10.88 94.68 10.39 94.07 9.02 94.35 7.43 94.97 3.9 98.4 3.08 100.92 4.37 101.05 4.44 101.15 4.69 101.15 4.84 101.13 5.2 101.04 5.55 100.96 5.95zM112.8 5.96C112.44 5.96 112.11 5.96 111.78 5.96 111.85 4.89 111.75 4.79 110.65 4.73 107.96 4.58 107 7.12 107.34 8.74 107.56 9.8 108.51 10.4 109.7 10.2 110.33 10.09 110.93 9.84 111.62 9.63 111.73 9.81 111.89 10.05 112.07 10.33 110.67 11.21 109.23 11.46 107.73 10.84 106.5 10.33 105.93 8.99 106.2 7.45 106.82 3.92 110.24 3.09 112.76 4.38 112.89 4.45 113 4.69 112.99 4.85 112.97 5.21 112.87 5.57 112.8 5.96zM130.82 4.56C130.73 5.04 130.65 5.49 130.56 5.96 130.21 5.96 129.88 5.96 129.56 5.96 129.54 5.91 129.51 5.87 129.52 5.84 129.65 4.93 129.64 4.91 128.74 4.77 126.45 4.4 124.52 6.55 125.11 8.8 125.38 9.83 126.28 10.41 127.44 10.22 128.07 10.12 128.67 9.86 129.37 9.65 129.48 9.81 129.64 10.05 129.79 10.28 128.62 11.28 126.48 11.48 125.22 10.72 124.18 10.1 123.7 8.83 123.97 7.41 124.56 4.18 127.9 2.77 130.82 4.56zM167.73 4.86C167.34 4.86 166.99 4.86 166.65 4.86 166.6 3.95 166.61 3.94 167.41 3.94 168.31 3.94 169.2 3.94 170.16 3.94 170.09 4.29 170.04 4.55 169.99 4.8 168.82 4.95 168.82 4.95 168.59 6.21 168.36 7.47 168.14 8.72 167.9 10.06 168.29 10.09 168.63 10.11 169.03 10.14 168.99 10.44 168.96 10.69 168.92 10.99 167.76 10.99 166.64 10.99 165.47 10.99 165.53 10.71 165.58 10.45 165.63 10.2 165.69 10.17 165.72 10.13 165.76 10.13 166.82 10.05 166.82 10.05 167.01 8.96 167.24 7.61 167.48 6.27 167.73 4.86z"/>
      </g>
    </g>
  </g>
</svg>
